<?xml version="1.0" encoding="utf-8"?>
<!-- Generator: Adobe Illustrator 25.1.0, SVG Export Plug-In . SVG Version: 6.00 Build 0)  -->
<svg version="1.1" xmlns="http://www.w3.org/2000/svg" xmlns:xlink="http://www.w3.org/1999/xlink" x="0px" y="0px"
	 viewBox="0 0 788.2 840" style="enable-background:new 0 0 788.2 840;" xml:space="preserve">
<style type="text/css">
	.st0{display:none;}
	.st1{display:inline;fill:#003399;}
	.st2{display:inline;fill:#FF3300;}
	.st3{fill:#FF3300;}
	.st4{fill:#003399;}
</style>
<g id="Layer_1" class="st0">
	<path class="st1" d="M467.3,16c4.1,0,8.1,0,12.2,0c1,0.4,2,1,3.1,1.1c23,3.1,41.8,13.7,56.7,31.2c17.7,20.8,22.7,46.2,24.1,72.4
		c1.8,34.8-6.5,67.3-22.4,98.3c-11.3,22-21.4,44.7-31.2,67.5c-5.6,13.1-8.9,27-7.3,41.6c1,9.4,2.4,10.5,11.7,10.4
		c5-0.1,9.9-0.2,14.9-0.3c56.2-1.2,112.4-2.6,168.4,3.1c12.6,1.3,25.4,2.6,35.6,11c18.9,15.5,32.2,35,41,57.8
		c4.8,12.3,3.5,23.2-5.2,33.4c-4,4.6-6.9,10.1-10.9,14.6c-9.3,10.7-9.5,21.8-2.3,33.5c5.4,8.9,10.6,17.8,15.8,26.8
		c7.8,13.7,7.4,20.4-2.2,32.7c-5.6,7.1-11.3,14.1-17.5,20.7c-9.4,10-11.2,21-6,33.6c3.8,9.1,6.9,18.6,10.7,27.7
		c5.5,13.2,3.9,25.3-5.7,35.8c-9.2,10.2-18.9,20-28.5,29.9c-6.3,6.5-9.5,14-9,23.2c0.4,7.2,0,14.5,0.3,21.7c0.4,9-2.4,16.8-7.6,24
		c-12.3,16.8-27.5,30.5-45.4,41c-5.7,3.4-12.1,6.8-18.6,7.6c-23.6,3.2-47.4,7.1-71.1,7.4c-39.9,0.6-79.9-0.7-119.8-2.4
		c-28.6-1.2-57.4-2.6-85.6-6.8c-42.3-6.4-84.2-15.3-126.3-23.2c-13-2.4-26.1-4.9-39.5-7.4c0-3.1,0-5.5,0-8
		c0-105,0.1-209.9-0.1-314.9c0-6.4,1.5-9,8.2-8.3c15.8,1.8,29.3-4.2,39.4-15.6c12.8-14.4,25.3-29.4,35.9-45.6
		c23.5-36,39.5-75.9,55.7-115.6c6-14.7,14.5-27.5,26.6-37.8c5.5-4.7,10.8-9.7,16.6-13.9c31-22.1,48.1-52.9,57.2-89.1
		c8.2-32.7,12.1-66.1,14.2-99.6C453.9,25.3,457.1,18.7,467.3,16z"/>
	<path class="st2" d="M5.4,464.4c3.7-12.2,9.9-22.4,23.1-25.9c4.3-1.1,8.9-1.5,13.4-1.5c29.6-0.1,59.1-0.1,88.7,0
		c23.9,0.1,36.1,12.4,36.2,36.4c0,99.5-0.3,199.1,0.2,298.6c0.1,24.5-17.1,37.1-36.5,36.6c-27.5-0.7-55.1-0.9-82.6,0
		c-21,0.7-36-6-42.5-27.1C5.4,675.8,5.4,570.1,5.4,464.4z"/>
</g>
<g id="Layer_2">
	<path class="st3" d="M392.6,695c-2.8-0.5-5.6-0.9-8.4-1.5c-8.7-2-17.3-4.5-25-9.1c-8.7-5.2-11.2-12.6-7.4-22.1
		c3.3-8.1,7.8-15.6,12.1-23.2c11.5-20,23-40.1,35.8-59.4c0.4-0.7,1-1.3,1.4-2c2-3.9,5.5-4.9,9.5-5c10.3-0.2,19.2,3.5,27,9.9
		c3.2,2.6,5.9,5.6,8.1,9.1c3.2,5.1,4.1,10.5,2.3,16.4c-3.5,11.5-8.5,22.4-13.7,33.2c-7,14.7-14.6,29.1-23.5,42.7
		c-1.5,2.3-3.1,4.4-4.8,6.5c-1.9,2.5-4.4,3.6-7.4,4c-0.5,0.1-1-0.2-1.3,0.4C395.6,695,394.1,695,392.6,695z"/>
	<path class="st4" d="M4.8,440c0-7.6-0.1-15.1,0-22.7c0.3-10.9,0.6-21.7,1.1-32.6c1.1-21.1,4.7-41.8,9.3-62.3
		c5.1-22.9,11.5-45.5,20-67.5c3.2-8.2,6.9-16,10.9-23.8c0.7-1.3,1.4-1,2.4-0.7c15.8,4.7,31.7,9.4,47.5,14
		c26.1,7.5,52.2,14.9,78.4,21.9c10.8,2.9,21.7,5.5,32.5,8.2c0.9,0.2,1.7,0.2,2.5-0.2c12.8-5.6,24.9-12.6,36.8-19.9
		c24.6-14.9,48.5-30.8,72.7-46.3c5.9-3.8,12-7.4,17.9-11.2c1.5-0.9,3-1.2,4.7-0.9c8.2,1.4,16.1,4.1,23.3,8.3c4.3,2.5,3.2,3,0.2,5.1
		c-10.6,7.5-21.6,14.5-32.1,22.3c-3.1,2.3-6.1,4.8-9.2,7.2c-2.9,2.2-4.3,5.3-5.4,8.6c-5.3,14.9-9.2,30.3-13.1,45.6
		c-3.5,13.9-6.9,27.8-9.7,41.8c-2,10.4-3.7,20.9-3.3,31.6c0.5,11.3,5.1,20.2,14.5,26.6c8.2,5.6,17.3,9.1,26.7,12
		c8.8,2.8,17.7,4.8,26.8,5.9c7.1,0.9,14.3,1.4,21.4,0c11.3-2.1,18.6-8.5,22.1-19.4c3.5-10.7,5.8-21.6,8.2-32.5
		c2.4-10.7,4.4-21.5,6.3-32.3c0.6-3.3,1-6.6,1.5-9.9c1.1-7.5,5.1-13.3,11-17.8c3.4-2.5,6.9-4.9,10.3-7.4c0.8-0.6,1.5-0.6,2.4-0.2
		c20.4,10.1,40.3,21.1,60.2,32.3C527,337,550,350.3,573,363.7c18,10.5,35.9,21.1,53.9,31.5c10,5.9,20.1,11.8,30.3,17.3
		c5.1,2.8,9.4,6.7,12.9,11.4c2.5,3.3,3.2,6.8,2.2,10.7c-2.8,11.6-8.2,21.9-16.8,30.2c-4.8,4.6-10.8,6.9-17.6,5.5
		c-4.4-0.9-8.4-2.7-12.3-4.8c-10.9-5.7-20.9-13-31.3-19.6c-10-6.3-20.2-12.1-31.4-15.8c-3.5-1.2-7.1-1.8-10.8-0.9
		c-1.4,0.3-2.8,0.8-3.9,1.8c-2.6,2.1-2.5,4.8,0.1,6.8c3.4,2.6,7.2,4.6,10.9,6.8c11.6,6.6,23.5,12.6,35.1,19.1
		c10.4,5.8,21,11.5,30.5,18.8c2.2,1.7,4.3,3.7,6.1,5.9c4,4.8,4.7,10.4,3.3,16.2c-3.6,13.8-10.7,25.5-21.5,34.9
		c-3.6,3.1-7.5,3.9-12.1,2.1c-9.1-3.5-17.6-8.1-26-12.9c-16.2-9.3-31.8-19.6-48.1-28.7c-3.1-1.7-6.1-3.5-9.7-4
		c-2.8-0.4-5.4,0-7.8,1.4c-3.5,2-3.7,5.5-0.5,7.9c8.6,6.1,17.7,11.3,26.8,16.6c12.3,7.2,24.7,14.3,36.5,22.4c2,1.4,3.8,3,5.8,4.5
		c3.1,2.2,3.8,5.2,3.4,8.8c-0.7,5.2-2.3,10-4.4,14.7c-3.5,7.7-7.5,15.1-13.6,21.2c-0.9,0.9-1.9,1.7-2.8,2.5
		c-4.8,4.3-10.2,4.6-16,2.3c-7.7-3-14.8-7.3-21.9-11.4c-10.7-6.3-21.3-12.9-32.5-18.4c-4.1-2-8.3-4-12.9-4.8
		c-0.6-0.1-1.3-0.2-1.9-0.1c-1.7,0.3-3.6,0.7-4.1,2.5c-0.5,1.7,1,2.9,2.2,3.9c4.7,4,10.3,6.7,15.7,9.7c5.5,3.1,10.7,6.6,14.7,11.7
		c3.4,4.3,5,9.1,3.5,14.5c-3.5,12.7-9.8,24-20.1,32.3c-8.7,7-15.8,6.2-24.3,1.4c-1.5-0.8-3-1.7-4.2-2.9c-2-2-2.4-3.7-1.4-6.3
		c0.8-2.1,2.1-3.8,3.3-5.7c3.1-4.8,5.4-9.9,6.3-15.6c1.1-6.7-0.1-13-2.9-19.1c-5.4-11.8-14.5-20.3-25.3-26.9
		c-7.6-4.6-15.7-7.6-24.6-8.3c-0.9-0.1-1.9-0.3-2.8-0.5c-2.9-0.6-4.8-1.9-6-4.9c-3.3-8.8-7.7-17.1-14.8-23.6
		c-9.5-8.7-20.5-14.6-33.4-16.2c-8.2-1-16.1,0.4-23.6,4.2c-4.5,2.3-9.1,4.5-13.8,6.5c-1.5,0.6-2.1,0.3-2.9-1.1
		c-1.9-3.5-3.6-7.1-5.7-10.4c-2.3-3.5-5.1-6.4-8.8-8.3c-9.9-5-20.5-7.8-31.6-8.8c-7.6-0.7-13.8,2.2-19.3,7.2
		c-5.7,5.2-10.7,11-16,16.5c-1.2,1.3-2,1.4-3.4,0.3c-8.8-6.6-17.6-13.2-27.8-17.7c-6.7-3-13.5-4.8-20.9-5.3
		c-6.8-0.5-12.2,2.2-17.1,6.4c-5.7,4.8-10,10.8-14.2,16.8c-0.8,1.2-1.5,1.4-2.9,1.1c-30.5-8.6-61.1-17.2-91.6-25.8
		c-15.7-4.4-31.4-9-47-13.9c-5-1.6-4.9-1.6-5.2-6.9C4.6,460.2,4.8,450.1,4.8,440z"/>
	<path class="st3" d="M784.3,384.3c0,9.1,0,18.1,0,27.2c-0.2,12-0.5,23.9-1.2,35.8c-0.6,9.7-1,19.5-2.9,29.1
		c-0.4,2.2-1.5,3.6-3.8,4.3c-15.4,5-30.9,9.2-46.5,13.4c-25.1,6.8-50.2,13.4-75.4,20.1c-1.2,0.3-2.3,0.6-3.4,1c-1.3,0.4-2,0-2.2-1.3
		c-0.2-1.6-0.5-3.1-0.5-4.7c-0.1-6.7-0.1-13.3-0.1-20c0-0.8-0.1-1.5,1-1.6c8.4-0.8,14-6.2,19-12.1c8.1-9.4,14.3-19.9,17.2-32.1
		c3.3-14.5,0-27.2-11-37.5c-3.4-3.2-7.7-5.2-11.7-7.6c-39-23.4-78.3-46.1-117.6-68.9c-31.2-18.1-62.4-36.1-94-53.7
		c-2-1.1-4.1-2-6-3.2c-1.6-1-2.8-0.7-4.3,0.3c-8.1,5.3-16,10.9-24,16.4c-3.3,2.3-6.6,4.7-9.9,6.9c-1,0.7-1.4,1.4-1.7,2.6
		c-5,23.3-9.8,46.6-15.8,69.6c-1.2,4.7-2.8,9.3-4.1,13.9c-1.9,6.5-6.4,9.7-12.6,10.9c-7.6,1.5-15.2,1.3-22.9,1.3
		c-8.4,0-15.8-2.9-23-6.8c-6.8-3.7-10.2-9.3-11-16.9c-1.4-13.4-0.8-26.7,1.1-40.1c3-21.3,7.9-42.2,12.3-63.2
		c2.3-11.1,7.8-19.8,16.9-26.5c24.9-18.7,49.5-38,75.4-55.4c1-0.7,2-0.9,3.2-0.9c9.7,0,19.4,0.1,29.1,0c2,0,3.7,0.4,5.5,1.5
		c34.3,19.5,68,39.8,101.8,60.2c10.7,6.5,21.4,12.9,32.1,19.4c1,0.6,2,0.8,3.2,0.5c37.5-9.6,75.1-19.2,112.6-28.7
		c8.5-2.2,17-4.3,25.5-6.6c2.1-0.6,3.4,0,4.5,1.6c1.4,2,2.7,4.1,3.8,6.3c13.8,27.3,25.8,55.3,34.1,84.8c4.3,15.4,6.8,31,7,47
		C784,375,784.2,379.7,784.3,384.3z"/>
	<path class="st3" d="M347.3,526.3c8.5,0.3,16.9,1.4,24.7,5.2c1.4,0.7,2.7,1.4,3.8,2.4c6.1,5.3,10.7,11.8,14.1,19.1
		c1.3,2.9,1,5.5-0.4,8.3c-5.1,10.1-10.8,19.7-16.6,29.4c-11.5,19-23.2,37.9-36.2,55.8c-2.8,3.9-5.9,7.7-9.2,11.3
		c-1.2,1.4-2.5,1.6-4.2,1c-7.5-2.7-14.5-6.6-21.4-10.6c-5.2-3-10.3-6.2-14.7-10.5c-3.7-3.5-4.8-7.5-3.5-12.3c1.6-6,4.2-11.6,7-17
		c13-25.6,26.8-50.8,40.9-75.8c2.2-3.9,5.3-5.5,9.3-5.9C343,526.5,345.1,526.2,347.3,526.3z"/>
	<path class="st3" d="M270.7,510.8c15.3,0.2,27.9,6.3,38.3,17.3c1,1.1,1.9,2.4,2.6,3.7c1.6,2.8,2.1,5.7,1,8.9
		c-2.4,7.2-5.6,14-9,20.7c-6.9,13.8-14,27.5-22.4,40.5c-2.6,4-5.3,8-8.9,11.2c-4.1,3.7-8.7,5.2-14.4,4c-11.5-2.5-22.3-6.8-31.6-14
		c-6.5-5-8.9-12-7.6-20.1c0.6-3.7,2.9-6.8,4.9-9.9c13.1-20.7,27.1-40.9,40.6-61.3c0.5-0.7,1-1,1.8-1
		C267.5,510.9,269.1,510.8,270.7,510.8z"/>
	<path class="st3" d="M189.1,510.8c16.7,0,31.2,10.2,37.2,25.8c1.4,3.6,1.4,7-0.5,10.5c-5.9,10.6-12.9,20.3-21.4,29.1
		c-4.8,5-10.5,5.8-16.6,4.3c-11.9-2.9-22.1-8.7-30.1-18c-5.5-6.4-6.8-13.6-2.7-21.3c4.6-8.8,10.4-16.8,17.3-23.9
		C177,512.3,181.4,510.8,189.1,510.8z"/>
</g>
</svg>
