<?xml version="1.0" encoding="utf-8"?>
<!-- Generator: Adobe Illustrator 25.1.0, SVG Export Plug-In . SVG Version: 6.00 Build 0)  -->
<svg version="1.1" id="Layer_1" xmlns="http://www.w3.org/2000/svg" xmlns:xlink="http://www.w3.org/1999/xlink" x="0px" y="0px"
	 viewBox="0 0 788.2 840" style="enable-background:new 0 0 788.2 840;" xml:space="preserve">
<style type="text/css">
	.st0{fill:#003399;}
	.st1{fill:#FF3300;}
</style>
<path class="st0" d="M467.3,16c4.1,0,8.1,0,12.2,0c1,0.4,2,1,3.1,1.1c23,3.1,41.8,13.7,56.7,31.2c17.7,20.8,22.7,46.2,24.1,72.4
	c1.8,34.8-6.5,67.3-22.4,98.3c-11.3,22-21.4,44.7-31.2,67.5c-5.6,13.1-8.9,27-7.3,41.6c1,9.4,2.4,10.5,11.7,10.4
	c5-0.1,9.9-0.2,14.9-0.3c56.2-1.2,112.4-2.6,168.4,3.1c12.6,1.3,25.4,2.6,35.6,11c18.9,15.5,32.2,35,41,57.8
	c4.8,12.3,3.5,23.2-5.2,33.4c-4,4.6-6.9,10.1-10.9,14.6c-9.3,10.7-9.5,21.8-2.3,33.5c5.4,8.9,10.6,17.8,15.8,26.8
	c7.8,13.7,7.4,20.4-2.2,32.7c-5.6,7.1-11.3,14.1-17.5,20.7c-9.4,10-11.2,21-6,33.6c3.8,9.1,6.9,18.6,10.7,27.7
	c5.5,13.2,3.9,25.3-5.7,35.8c-9.2,10.2-18.9,20-28.5,29.9c-6.3,6.5-9.5,14-9,23.2c0.4,7.2,0,14.5,0.3,21.7c0.4,9-2.4,16.8-7.6,24
	c-12.3,16.8-27.5,30.5-45.4,41c-5.7,3.4-12.1,6.8-18.6,7.6c-23.6,3.2-47.4,7.1-71.1,7.4c-39.9,0.6-79.9-0.7-119.8-2.4
	c-28.6-1.2-57.4-2.6-85.6-6.8c-42.3-6.4-84.2-15.3-126.3-23.2c-13-2.4-26.1-4.9-39.5-7.4c0-3.1,0-5.5,0-8c0-105,0.1-209.9-0.1-314.9
	c0-6.4,1.5-9,8.2-8.3c15.8,1.8,29.3-4.2,39.4-15.6c12.8-14.4,25.3-29.4,35.9-45.6c23.5-36,39.5-75.9,55.7-115.6
	c6-14.7,14.5-27.5,26.6-37.8c5.5-4.7,10.8-9.7,16.6-13.9c31-22.1,48.1-52.9,57.2-89.1c8.2-32.7,12.1-66.1,14.2-99.6
	C453.9,25.3,457.1,18.7,467.3,16z"/>
<path class="st1" d="M5.4,464.4c3.7-12.2,9.9-22.4,23.1-25.9c4.3-1.1,8.9-1.5,13.4-1.5c29.6-0.1,59.1-0.1,88.7,0
	c23.9,0.1,36.1,12.4,36.2,36.4c0,99.5-0.3,199.1,0.2,298.6c0.1,24.5-17.1,37.1-36.5,36.6c-27.5-0.7-55.1-0.9-82.6,0
	c-21,0.7-36-6-42.5-27.1C5.4,675.8,5.4,570.1,5.4,464.4z"/>
</svg>
