<?xml version="1.0" encoding="utf-8"?>
<!-- Generator: Adobe Illustrator 25.1.0, SVG Export Plug-In . SVG Version: 6.00 Build 0)  -->
<svg version="1.1" id="Layer_1" xmlns="http://www.w3.org/2000/svg" xmlns:xlink="http://www.w3.org/1999/xlink" x="0px" y="0px"
	 viewBox="0 0 1920 840" style="enable-background:new 0 0 1920 840;" xml:space="preserve">
<style type="text/css">
	.st0{fill:#E5E6EF;}
</style>
<path class="st0" d="M1218,783.7c-4-2.1-8.4-1.2-12.6-1.8c-7.5-0.9-15.2-0.6-22.8-1.1c-19.2-1.1-38.3-2.6-57.5-3.9
	c-13.2-0.9-26.4-2.3-39.6-3.4c-14.5-1.2-28.9-3.1-43.4-4.7c-10-1.1-20.1-2.1-30.1-3.2c-12.5-1.5-24.9-3-37.4-4.6
	c-13.8-1.8-27.5-3.5-41.3-5.4c-12.1-1.6-24.2-3.4-36.3-5.2c-15-2.2-30.1-4.5-45.1-6.8c-15.8-2.5-31.6-5.1-47.5-7.7
	c-21.4-3.4-42.8-6.8-64.1-10.3c-19.9-3.3-39.8-6.8-59.6-10.2c-19.1-3.3-38.1-6.5-57.2-9.7c-18.7-3.2-37.5-6.3-56.2-9.4
	c-17.4-2.9-34.9-5.7-52.4-8.5c-20.1-3.2-40.1-6.5-60.2-9.6c-14.9-2.3-29.8-4.2-44.7-6.4c-13.2-1.9-26.5-4-39.7-5.8
	c-14.1-1.9-28.2-3.5-42.3-5.2c-15.7-1.9-31.5-4.1-47.2-5.8c-11.3-1.3-22.7-2.1-34.1-3.2c-17.8-1.6-35.5-3.4-53.3-4.9
	c-11.4-0.9-22.8-1.3-34.2-2.1c-22.2-1.5-44.4-2.7-66.6-3.2c-5.9-0.2-11.9-0.4-17.9-0.8c-24.8-1.4-49.6-0.9-74.4-1
	c0-19.6,0-39.3,0-58.9c16.3,0,32.7-0.2,49,1c2,0,4,0,6,0c1.4,1.6,3.3,0.8,5,0.9c16.5,1.4,33.1,1.2,49.5,3.7c6.6,1,13.6,0.6,20.3,1.3
	c14.1,1.5,28.2,3.6,42.4,4.4c13.3,0.7,26.1,4.1,39.4,4.7c6.7,0.3,13.5,1.4,20.2,2.4c12.4,1.8,24.8,3.6,37.2,5.5
	c8.8,1.4,17.6,2.8,26.4,4.3c15,2.5,30,5.1,44.9,7.7c10.6,1.8,21.1,3.8,31.7,5.6c19.4,3.2,38.7,7,57.9,10.7c17.7,3.4,35.4,7,53,10.6
	c15.7,3.2,31.3,6.7,47.2,9.3c8.9,1.5,17.6,4.2,26.6,6c14.4,2.8,28.7,6.3,43.2,9.3c20.4,4.1,40.7,8.7,61,13.1
	c14.5,3.2,29.1,6.2,43.7,9c10.7,2,21.2,5.1,31.9,7c20.2,3.6,40.2,8.2,60.3,12.2c13.3,2.6,26.6,5.1,39.8,7.9
	c16,3.4,32.1,6.3,48.2,9.1c20,3.4,39.9,7.6,60,10.8c16.3,2.6,32.6,5.6,49,7.6c18.3,2.3,36.5,5.8,54.8,8.6c11.9,1.8,24,2.8,35.9,4.5
	c13.2,1.8,26.7,2.5,39.8,5.4c4.7,1,9.6,0.8,14.3,1.2c21.1,1.8,42.2,3.6,63.2,6c7.2,0.8,14.6,0.6,21.9,1c24,1.2,48,2.9,72.1,3.5
	c26.5,0.7,52.9,0.8,79.4,0.3c12.3-0.2,24.6-0.1,36.9-0.8c13.2-0.7,26.4-1.9,39.6-2.9c0.3,1.3,0.7,2.6,1,3.9
	c-14.1,1.3-28.2,2.6-42.4,3.9c-5.1,0.5-10.2,0.4-15.3,0.9c-9,1-18.2,0.7-27.3,1.2c-4.4,0.2-8.8,0.4-13,1.9c-4.7,0-9.3,0-14,0
	c-0.3-0.7-0.7-0.7-1,0c-36.3,0-72.7,0-109,0c-3-1.6-6-1.6-9,0C1220.7,783.7,1219.3,783.7,1218,783.7z"/>
</svg>
