<?xml version="1.0" encoding="utf-8"?>
<!-- Generator: Adobe Illustrator 25.1.0, SVG Export Plug-In . SVG Version: 6.00 Build 0)  -->
<svg version="1.1" id="Layer_2_1_" xmlns="http://www.w3.org/2000/svg" xmlns:xlink="http://www.w3.org/1999/xlink" x="0px" y="0px"
	 viewBox="0 0 512 512" style="enable-background:new 0 0 512 512;" xml:space="preserve">
<style type="text/css">
	.st0{fill:#1E39B2;stroke:#1E39B2;stroke-miterlimit:10;}
	.st1{opacity:0.2;}
</style>
<path class="st0" d="M320,32v40H192V32c0-2.7,0.3-5.4,1-8c3.6-14.1,16.4-24,31-24h64c14.6,0,27.3,9.9,31,24
	C319.7,26.6,320,29.3,320,32z"/>
<path class="st0" d="M96,72h320v64H96V72z"/>
<path class="st0" d="M40,136l24,48v320h112V264c0-35.3,28.7-64,64-64h32c35.3,0,64,28.7,64,64v240h112V184l24-48H40z"/>
<g class="st1">
	<path class="st0" d="M96,112h320v24H96V112z"/>
</g>
<g class="st1">
	<path class="st0" d="M320,48v24H192V48c0-2.7,0.3-5.4,1-8H319C319.7,42.6,320,45.3,320,48z"/>
</g>
<g class="st1">
	<path class="st0" d="M64,448h112v56H64V448z"/>
</g>
<g class="st1">
	<path class="st0" d="M336,448h112v56H336V448z"/>
</g>
<g>
	<path class="st0" d="M64,304h112v80H64V304z"/>
	<path class="st0" d="M336,304h112v80H336V304z"/>
	<path class="st0" d="M384,280h-8c-4.4,0-8-3.6-8-8s3.6-8,8-8h8c4.4,0,8,3.6,8,8S388.4,280,384,280z"/>
	<path class="st0" d="M416,280h-8c-4.4,0-8-3.6-8-8s3.6-8,8-8h8c4.4,0,8,3.6,8,8S420.4,280,416,280z"/>
</g>
<path class="st0" d="M128,208h-15c-4.4,0-8-3.6-8-8s3.6-8,8-8h15c4.4,0,8,3.6,8,8S132.4,208,128,208z"/>
<path class="st0" d="M128,456h-16c-4.4,0-8-3.6-8-8s3.6-8,8-8h16c4.4,0,8,3.6,8,8S132.4,456,128,456z"/>
<path class="st0" d="M400,456h-16c-4.4,0-8-3.6-8-8s3.6-8,8-8h16c4.4,0,8,3.6,8,8S404.4,456,400,456z"/>
<path class="st0" d="M400,208h-16c-4.4,0-8-3.6-8-8s3.6-8,8-8h16c4.4,0,8,3.6,8,8S404.4,208,400,208z"/>
<path class="st0" d="M352,120h-16c-4.4,0-8-3.6-8-8s3.6-8,8-8h16c4.4,0,8,3.6,8,8S356.4,120,352,120z"/>
<path class="st0" d="M176,120h-16c-4.4,0-8-3.6-8-8s3.6-8,8-8h16c4.4,0,8,3.6,8,8S180.4,120,176,120z"/>
<path class="st0" d="M0,496h512v16H0V496z"/>
<path class="st0" d="M96,40h16v32H96V40z"/>
<path class="st0" d="M400,40h16v32h-16V40z"/>
</svg>
