<?xml version="1.0" encoding="utf-8"?>
<!-- Generator: Adobe Illustrator 25.1.0, SVG Export Plug-In . SVG Version: 6.00 Build 0)  -->
<svg version="1.1" xmlns="http://www.w3.org/2000/svg" xmlns:xlink="http://www.w3.org/1999/xlink" x="0px" y="0px"
	 viewBox="0 0 512 512" style="enable-background:new 0 0 512 512;" xml:space="preserve">
<style type="text/css">
	.st0{display:none;}
	.st1{display:inline;fill:#1E39B2;stroke:#1E39B2;stroke-miterlimit:10;}
	.st2{display:inline;opacity:0.2;}
	.st3{fill:#1E39B2;stroke:#1E39B2;stroke-miterlimit:10;}
	.st4{display:inline;}
	.st5{fill:#1E39B2;}
</style>
<g id="Layer_2_1_" class="st0">
	<path class="st1" d="M320,32v40H192V32c0-2.7,0.3-5.4,1-8c3.6-14.1,16.4-24,31-24h64c14.6,0,27.3,9.9,31,24
		C319.7,26.6,320,29.3,320,32z"/>
	<path class="st1" d="M96,72h320v64H96V72z"/>
	<path class="st1" d="M40,136l24,48v320h112V264c0-35.3,28.7-64,64-64h32c35.3,0,64,28.7,64,64v240h112V184l24-48H40z"/>
	<g class="st2">
		<path class="st3" d="M96,112h320v24H96V112z"/>
	</g>
	<g class="st2">
		<path class="st3" d="M320,48v24H192V48c0-2.7,0.3-5.4,1-8H319C319.7,42.6,320,45.3,320,48z"/>
	</g>
	<g class="st2">
		<path class="st3" d="M64,448h112v56H64V448z"/>
	</g>
	<g class="st2">
		<path class="st3" d="M336,448h112v56H336V448z"/>
	</g>
	<g class="st4">
		<path class="st3" d="M64,304h112v80H64V304z"/>
		<path class="st3" d="M336,304h112v80H336V304z"/>
		<path class="st3" d="M384,280h-8c-4.4,0-8-3.6-8-8s3.6-8,8-8h8c4.4,0,8,3.6,8,8S388.4,280,384,280z"/>
		<path class="st3" d="M416,280h-8c-4.4,0-8-3.6-8-8s3.6-8,8-8h8c4.4,0,8,3.6,8,8S420.4,280,416,280z"/>
	</g>
	<path class="st1" d="M128,208h-15c-4.4,0-8-3.6-8-8s3.6-8,8-8h15c4.4,0,8,3.6,8,8S132.4,208,128,208z"/>
	<path class="st1" d="M128,456h-16c-4.4,0-8-3.6-8-8s3.6-8,8-8h16c4.4,0,8,3.6,8,8S132.4,456,128,456z"/>
	<path class="st1" d="M400,456h-16c-4.4,0-8-3.6-8-8s3.6-8,8-8h16c4.4,0,8,3.6,8,8S404.4,456,400,456z"/>
	<path class="st1" d="M400,208h-16c-4.4,0-8-3.6-8-8s3.6-8,8-8h16c4.4,0,8,3.6,8,8S404.4,208,400,208z"/>
	<path class="st1" d="M352,120h-16c-4.4,0-8-3.6-8-8s3.6-8,8-8h16c4.4,0,8,3.6,8,8S356.4,120,352,120z"/>
	<path class="st1" d="M176,120h-16c-4.4,0-8-3.6-8-8s3.6-8,8-8h16c4.4,0,8,3.6,8,8S180.4,120,176,120z"/>
	<path class="st1" d="M0,496h512v16H0V496z"/>
	<path class="st1" d="M96,40h16v32H96V40z"/>
	<path class="st1" d="M400,40h16v32h-16V40z"/>
</g>
<g id="Layer_3">
	<path class="st5" d="M263,1.5c0.8,2.8,1.8,5.6,3.5,8.1c1.6,2.6,1.8,5.6,1.3,8.6c-0.3,2.2,0,4.2,1.3,5.9c4.9,7.2,4.1,14.5,0.4,21.7
		c-1,1.9-1.3,3.7-1.2,5.6c0,0.9,0.1,1.7,0.7,2.5c2,2.6,2.3,5.6,2.2,8.7c-0.1,2.2-0.2,4.4-0.2,6.6c0.1,4.3,1.5,8.1,4.8,11.1
		c3.3,3,4.6,7,5.1,11.8c-12.8-3.5-25.4-3.7-38.3,0.1c0.4-4.6,1.5-8.5,4.7-11.5c4-3.7,5.3-8.1,5.3-13.3c0-1.6-0.2-3.3-0.3-4.9
		c-0.2-2.9,0.2-5.7,1.8-8.2c1.7-2.5,1.5-5.1,0.1-7.7c-1.7-3.2-3-6.6-3.2-10.2c-0.3-4.2,0.4-8.1,2.8-11.6c1.5-2.1,2.1-4.4,1.7-7.1
		c-0.5-3.4,0.1-6.7,2.3-9.6c1.4-1.9,2.1-4.3,2.7-6.6C261.3,1.5,262.2,1.5,263,1.5z"/>
	<path class="st5" d="M453.6,512c-4-1.1-7.9-2.3-11.9-3.3c-3.6-0.9-7.3-1.6-10.9-2.5c-2.6-0.6-2.6-0.6-2.6-3.1c0-5.3,0-10.5,0-15.8
		c0-6,0-12.1,0-18.1c0-1.9-0.4-3.7-1.4-5.3c-2.6-3.9-7.6-3.7-10,0.3c-1,1.7-1.1,3.5-1.1,5.4c0,10.1,0,20.2,0,30.2
		c0,1.1,0.3,2.2-0.4,3.4c-3.5-0.5-7.1-1-10.6-1.5c-2.6-0.4-5.2-0.8-7.8-1.1c-2.6-0.3-2.7-0.3-2.7-3c0-12.4,0-24.8,0-37.1
		c0-1,0-2-0.1-3c-0.3-3.7-3.1-6.5-6.5-6.7c-3.4-0.2-6.3,2.4-6.9,6.2c-0.2,1.1-0.2,2.2-0.2,3.3c0,11.5,0,23,0,34.5c0,0.9,0,1.8,0,2.6
		c0,0.8-0.4,1.2-1.2,1.1c-0.7-0.1-1.3-0.1-2-0.2c-6.8-0.6-13.5-1.2-20.3-1.9c-2.7-0.2-2.7-0.2-2.7-2.9c0-13.8,0-27.6,0-41.4
		c0-1.4,0-2.9-0.3-4.3c-0.6-3.4-3.7-5.8-7.1-5.8c-3.4,0-6.3,2.4-7,5.8c-0.2,1.2-0.2,2.4-0.2,3.6c0,13.4,0,26.7,0.1,40.1
		c0,4,0.1,3.5-3.6,3.4c-7.1-0.3-14.2-0.7-21.3-1.1c-2.6-0.1-2.6-0.1-2.6-2.9c0-14.7,0-29.4,0-44.1c0-1.4,0-2.8-0.3-4.3
		c-1.1-5-6.6-7.5-11-5c-2.1,1.2-3.4,3-3.6,5.5c-0.1,0.9,0,1.8,0,2.6c0,14.6,0,29.1,0,43.7c0,0.5-0.1,1.1,0,1.6
		c0.2,1.7-0.7,2.1-2.1,2c-0.3,0-0.7,0-1,0c-7.7-0.1-15.3-0.3-23-0.4c-2.7-0.1-2.7-0.1-2.7-2.7c0-9,0-18,0-27c0-7-0.1-14,0.1-21
		c0.1-4.9-3.9-8-7.7-8.1c-4.8-0.1-8.2,2.9-8.5,7.7c-0.1,1,0,2,0,3c0,14.6,0,29.1,0,43.7c0,0.8-0.1,1.5,0,2.3c0.1,1.5-0.4,2.2-2,2.1
		c-2-0.1-3.9,0-5.9,0.1c-5.8,0.1-11.6,0.2-17.4,0.3c-3.7,0.1-3.3,0.4-3.3-3.4c0-14.6,0-29.1,0-43.7c0-0.9,0.1-1.8,0-2.6
		c-0.4-3.8-3.5-6.6-7.3-6.7c-3.7-0.1-7,2.7-7.6,6.4c-0.2,1.1-0.1,2.2-0.1,3.3c0,14.2,0,28.5,0,42.7c0,0.7,0,1.3,0,2
		c0,2.5-0.1,2.5-2.5,2.7c-3.9,0.2-7.9,0.4-11.8,0.5c-3.6,0.2-7.2,0.4-10.8,0.6c-2.3,0.1-2.4,0.1-2.4-2.2c0-8.7,0-17.3,0-26
		c0-5.6,0-11.2,0-16.8c0-4.7-2.9-7.8-7.1-7.9c-4.1-0.1-7.3,3.3-7.4,7.9c0,1.1,0,2.2,0,3.3c0,13.4,0,26.7,0,40.1c0,2.5,0,2.6-2.4,2.8
		c-7.4,0.7-14.8,1.3-22.3,2c-1.2,0.1-1.6-0.3-1.6-1.4c0-0.8,0-1.5,0-2.3c0-11.8,0-23.7,0-35.5c0-0.7,0-1.3,0-2
		c-0.4-3.3-2.7-5.7-5.9-6.2c-3-0.5-6.1,1.4-7.2,4.5c-0.6,1.6-0.6,3.2-0.6,4.9c0,12.2,0,24.3,0,36.5c0,3.3,0,3.3-3,3.7
		c-6,0.8-11.9,1.6-17.9,2.4c-0.6-1.1-0.4-2.2-0.4-3.3c0-10.1,0-20.2,0-30.2c0-1.9-0.3-3.7-1.4-5.3c-2.6-3.9-7.5-3.8-10,0.1
		c-1.1,1.8-1.2,3.7-1.2,5.7c0,10.3,0,20.6,0,30.9c0,0.7,0,1.3,0,2c0,2.6,0,2.5-2.7,3.1c-4.1,0.9-8.1,1.7-12.2,2.7
		c-3.6,0.9-7.2,2-10.8,3c-0.7,0.2-1.4,0.5-2.4,0.1c0-5.4-0.1-10.9,0-16.3c0-1.9-0.6-3.2-1.8-4.6c-6.7-7.7-8.3-16.5-4.3-26
		c2.8-6.7,7.3-12.2,12.8-16.9c7.7-6.8,16.5-11.9,25.8-16.2c16.3-7.7,33.5-12.9,51-17c17.7-4.1,35.7-6.9,53.8-8.8
		c21.5-2.2,43.1-3.2,64.7-2.9c33.8,0.5,67.4,3.6,100.5,10.9c20.7,4.6,40.9,10.7,59.8,20.4c8.8,4.5,17.1,9.8,24.1,16.9
		c3.6,3.6,6.5,7.7,8.7,12.3c4.6,9.7,3.3,19.5-3.9,27.4c-1.3,1.4-1.8,2.8-1.8,4.7c0.1,4.5,0.1,9,0,13.5
		C453.9,509.9,454.1,510.9,453.6,512z"/>
	<path class="st5" d="M122.2,409.8c0-10.4,0-20.4,0-30.4c0-1.8-0.1-3.5-0.9-5.1c-0.7-1.4-1.5-2.7-3.4-2.7c-1.7,0.1-2.5,1.3-3.1,2.6
		c-0.9,1.9-0.9,4-0.9,6.1c0,9.8,0,19.5,0,29.3c0,3,0.5,2.7-2.7,3.9c-4.3,1.6-8.6,3.3-12.9,5c-0.7,0.3-1.3,0.8-2.2,0.5
		c-0.5-0.8-0.3-1.7-0.3-2.5c0-3.6-0.1-7.2,0-10.8c0.1-2.7-0.5-4.9-2.1-7.3c-5.7-8.8-6.3-18.2-2.8-28c3.3-9.2,9.1-16.7,16.3-23.1
		c10.3-9.2,22.3-15.9,34.9-21.3c17.9-7.7,36.6-12.6,55.7-16c22.9-4,45.9-5.7,69.1-5.2c32,0.7,63.5,4.9,94.1,15
		c12.4,4.1,24.4,9.2,35.6,16c9.2,5.5,17.6,12,24.2,20.5c4.7,6.1,8.1,12.7,9.5,20.3c1.4,8.2-0.2,15.7-4.9,22.5
		c-1.2,1.8-1.7,3.4-1.7,5.5c0.1,3.9,0,7.9,0,11.8c0,1.1,0.2,2.2-0.2,3.2c-0.7,0.3-1.1,0-1.6-0.2c-4.1-1.6-8.1-3.3-12.2-4.8
		c-1.6-0.6-2.2-1.4-2.2-3.1c0.1-3.4,0-6.8,0-10.2c0-6.9,0-13.8,0-20.7c0-1.8-0.1-3.5-0.6-5.2c-0.6-1.7-1.4-3.3-3.5-3.5
		c-1.5-0.2-2.8,1.2-3.6,3.3c-0.5,1.5-0.6,3-0.6,4.5c0,9.1,0,18.2,0,27.3c0,1.1,0,2.2,0,3.2c-0.9,0.7-1.6,0.3-2.3,0.1
		c-3.4-1-6.7-2.1-10.1-2.9c-1.9-0.4-2.3-1.4-2.3-3.2c0.1-11.4,0-22.8,0-34.2c0-2.1-0.1-4.2-1.1-6.1c-0.7-1.4-1.7-2.6-3.5-2.6
		c-1.8,0-2.7,1.2-3.5,2.7c-0.9,1.7-1,3.5-1,5.4c0,10.4,0,20.8,0,31.2c0,1.1,0.2,2.2-0.3,3.4c-1.2,0.2-2.3-0.2-3.4-0.5
		c-3.6-0.8-7.3-1.5-10.9-2.2c-2.9-0.6-3-0.6-3-3.5c0-13,0-26.1,0-39.1c0-1.9,0.1-3.7-0.8-5.5c-0.8-1.7-1.9-3-3.9-3.1
		c-2,0-3.1,1.4-3.9,3c-0.8,1.6-0.8,3.4-0.8,5.1c0,12.4,0,24.8,0,37.1c0,1.1,0.3,2.2-0.4,3.4c-4-0.6-8.1-1.2-12.2-1.7
		c-0.8-0.1-1.5-0.2-2.3-0.3c-3.4-0.4-3.4-0.4-3.4-3.7c0-9.9,0-19.7,0-29.6c0-4.2,0-8.3,0-12.5c0-1.8-0.3-3.5-1.3-5
		c-2-3.2-5.4-3.1-7.4,0.1c-1,1.6-1.2,3.5-1.2,5.4c0,13.3,0,26.5,0,39.8c0,1.2,0.2,2.4-0.3,3.9c-5-0.4-10.1-0.8-15.2-1.3
		c-4.7-0.5-4.7-0.5-4.7-5.3c0-13.5,0-27,0-40.4c0-1.5,0-3.1-0.4-4.6c-0.7-2.5-2.8-4.3-4.8-4.4c-2.1-0.1-4.3,1.9-5,4.5
		c-0.3,1.3-0.4,2.6-0.4,3.9c0,14.1,0,28.3,0,42.4c0,0.3,0,0.7,0,1c0.1,1.4-0.6,1.6-1.8,1.6c-4.9-0.3-9.9-0.5-14.8-0.7
		c-1.9-0.1-3.7-0.1-5.6-0.1c-1.1,0-1.6-0.5-1.5-1.6c0-0.8,0-1.5,0-2.3c0-14.5,0-28.9,0-43.4c0-1.9-0.2-3.7-1.2-5.4
		c-2.1-3.2-6-3.1-8.1,0.2c-1.2,1.8-1.2,3.9-1.2,6c0,9.8,0,19.5,0,29.3c0,4.9,0,9.9,0,14.8c0,2.3-0.1,2.3-2.4,2.4
		c-5.4,0.2-10.7,0.4-16.1,0.6c-3,0.1-2.9,0.3-2.9-2.7c0-14,0-28.1,0-42.1c0-1.7-0.1-3.3-0.8-4.8c-0.9-1.9-2.3-3.4-4.5-3.4
		c-2.2,0-3.6,1.4-4.5,3.3c-0.8,1.6-0.8,3.4-0.8,5.1c0,14,0,28.1,0,42.1c0,3.5,0,3.5-3.5,3.8c-5.2,0.4-10.5,0.9-15.7,1.3
		c-2.9,0.2-2.9,0.2-2.9-2.6c0-13.4,0-26.7,0-40.1c0-1.4,0.1-2.8-0.4-4.2c-0.9-2.5-2.7-4.3-4.6-4.1c-2.4,0.3-3.5,1.9-4.3,4
		c-0.6,1.6-0.6,3.2-0.6,4.9c0,13.2,0,26.3,0,39.5c0,0.7-0.1,1.3,0,2c0.1,1.5-0.3,2.1-1.9,2.3c-5.3,0.6-10.6,1.4-15.9,2.2
		c-1.3,0.2-1.9,0-1.8-1.4c0-2.2,0-4.4,0-6.6c0-10.8,0-21.7,0-32.5c0-2-0.1-3.9-1.3-5.7c-1.9-2.9-5-2.9-6.9,0c-1.2,1.8-1.3,3.9-1.3,6
		c0,12.7,0,25.4,0,38.1c0,0.8,0,1.5,0,2.3c0.1,1.2-0.5,1.7-1.7,2c-4.3,0.8-8.6,1.8-12.9,2.6c-2.3,0.4-2.4,0.4-2.4-2.1
		c0-11.5,0-23,0-34.5c0-2-0.1-3.9-1.2-5.7c-1.8-2.8-4.5-2.8-6.3-0.1c-1.2,1.7-1.3,3.7-1.3,5.7c0,9.1,0,18.2,0,27.3
		c0,3.4-0.1,6.8,0,10.2c0,1.3-0.4,2-1.7,2.3C130.8,407.4,126.7,408.6,122.2,409.8z"/>
	<path class="st5" d="M127.5,320.4c0.6-0.8,1.1-1.6,1.7-2.4c4.2-5.4,6.8-11.3,8.2-18c3.2-15.1,7.3-30,13.9-44.1
		c10.4-22.4,24.8-41.8,44.7-56.8c17.2-13,36.7-20.5,58.2-21.9c24.8-1.7,47.5,4.8,68.1,18.7c12.2,8.2,22.3,18.6,31.2,30.3
		c16,21,26.3,44.7,32.3,70.2c2.4,10.3,6.5,19.4,12.8,27.8c0.2,0.3,0.6,0.6,0.4,1.1c-0.3,0.3-0.6,0-0.8-0.2
		c-17.2-10.5-35.9-17.2-55.3-22.1c-16.6-4.2-33.5-6.8-50.5-8.3c-19.5-1.7-39-1.9-58.5-0.5c-27.8,1.9-55,6.7-81.2,16.3
		c-8.2,3-16.2,6.7-24,10.6C128.1,321,127.7,320.9,127.5,320.4z M267.1,261c0-2,0.1-3.9,0-5.9c-0.1-2.5-2.3-4.5-5-4.5
		c-2.9,0-5.2,1.9-5.3,4.5c-0.1,3.8,0,7.6,0,11.5c0,0.9,0.2,1.7,0.8,2.4c1.6,1.8,4.1,2.7,6.1,2c1.9-0.6,3.3-2.9,3.3-5.4
		C267.1,264.1,267.1,262.6,267.1,261z M234.7,262c0,1.9,0,3.7,0,5.6c0,0.1,0,0.2,0,0.3c0.1,2.3,2.1,4.4,4.3,4.4
		c2.4,0.1,4.8-1.8,4.9-4.2c0.1-4,0.1-8.1,0-12.1c0-2.1-2.2-4.2-4.1-4.3c-2.6-0.2-4.9,1.8-5,4.4C234.6,258.1,234.7,260.1,234.7,262z
		 M289.3,262.1c0-2,0-3.9,0-5.9c0-0.1,0-0.2,0-0.3c-0.3-2.2-2.5-4.2-4.6-4.2c-2.2,0-4.5,2-4.5,4.2c-0.1,4.1-0.1,8.3,0,12.4
		c0,1.8,2.3,3.8,4.1,4c2.8,0.2,5-1.8,5.1-4.7C289.4,265.8,289.3,264,289.3,262.1z M223.5,264.3c0-2,0.1-3.9,0-5.9
		c-0.1-2.4-2.1-4.4-4.2-4.5c-2.2-0.1-4.5,1.8-4.6,4.1c-0.2,4.1-0.1,8.3,0,12.4c0.1,2.2,2.2,4,4.4,4c2.3,0,4.3-1.9,4.4-4.2
		C223.6,268.2,223.5,266.2,223.5,264.3z M309.2,264.2c0-2.1,0.1-4.2,0-6.2c-0.1-2.2-2.1-4.1-4.2-4.1c-2.2,0-4.5,1.8-4.5,4.1
		c-0.1,4.1-0.1,8.3,0,12.4c0.1,2.1,2.2,4,4.4,4c2.3,0,4.3-1.8,4.4-4.3C309.3,268.2,309.3,266.2,309.2,264.2z M203,268.6
		c0-1.9,0-3.7,0-5.6c0-0.1,0-0.2,0-0.3c-0.1-1.9-1.8-4.3-3.1-4.6c-2.1-0.5-4.7,1.5-4.8,4.1c-0.2,4.1-0.1,8.3,0,12.5
		c0,1.6,1.6,3.7,2.9,4c1.6,0.5,3-0.2,4.4-2.1c0.5-0.8,0.7-1.5,0.7-2.4C203,272.3,203,270.5,203,268.6z M328.9,268.5
		C328.9,268.5,328.9,268.5,328.9,268.5c0-2.1,0.1-4.2,0-6.2c-0.2-2.6-2.3-4.5-4.4-4.2c-1.3,0.2-3.4,2.3-3.4,3.9
		c-0.1,4.4-0.2,8.7,0,13.1c0.1,1.7,1.4,3,3,3.6c1.6,0.6,2.7-0.1,4.1-1.9c0.7-0.9,0.8-1.8,0.8-2.7
		C328.9,272.2,328.9,270.4,328.9,268.5z M182.6,274c0-2,0.1-3.9,0-5.9c-0.1-1.9-1.1-3.4-2.8-4.1c-1.8-0.8-4.4,1.1-4.6,3.5
		c-0.2,4-0.1,8.1,0,12.1c0.1,1.5,1.9,3.1,3.2,3.3c1.9,0.3,2.8-0.9,3.7-2.2c0.5-0.7,0.5-1.4,0.5-2.2
		C182.6,277.1,182.6,275.5,182.6,274z M348.8,273.7C348.8,273.7,348.8,273.7,348.8,273.7c0-2,0.1-3.9,0-5.9c-0.2-2.3-2.1-4-4-3.9
		c-1.3,0.1-3.2,1.9-3.3,3.6c-0.1,4-0.1,8.1,0,12.1c0,1.5,1.9,3.2,3.2,3.3c1.6,0.2,3-0.7,3.9-2.4c0.3-0.6,0.3-1.3,0.3-1.9
		C348.8,277,348.8,275.4,348.8,273.7z M164.4,281.2c0-1.5-0.1-3.1,0-4.6c0.1-1.2-0.5-2.1-1.2-2.9c-1-1.2-2.6-1.2-3.7-0.1
		c-0.8,0.9-1.3,1.9-1.3,3.2c0.1,2.7,0,5.4,0,8.2c0,0.5-0.1,1.1,0.1,1.6c0.4,1.4,1,2.7,2.7,2.8c1.4,0.1,2.8-1,3.2-2.7
		c0.1-0.5,0.1-1.1,0.1-1.6C164.4,283.8,164.4,282.5,164.4,281.2z M365.7,281.1c0-1.4-0.1-2.9,0-4.3c0.1-1.2-0.4-2.1-1.1-3
		c-1.1-1.3-2.8-1.4-3.9,0c-0.6,0.8-1.1,1.6-1.1,2.7c0,3.2,0,6.4,0,9.5c0,1.9,1.4,3.4,2.8,3.5c1.6,0.1,3.1-1.4,3.2-3.4
		C365.8,284.4,365.7,282.7,365.7,281.1z"/>
	<path class="st5" d="M298.3,174.8c-12.1-4.3-24-6.4-36.2-6.4c-12.2,0-24.2,1.6-36.1,5.8c0.7-3.6,2.5-5.8,5.2-7.2
		c1.7-0.9,2.2-2,2.2-3.8c-0.1-9.3-0.1-18.6,0-27.9c0-1.9-0.4-3.3-1.9-4.6c-2-1.7-3.5-4-4.6-6.4c-2.9-6.2-1.6-12.1,3.4-16.7
		c3.6-3.2,7.8-5.2,12.4-6.6c13.3-3.9,26.6-3.9,39.8,0.4c3.7,1.2,7.1,2.9,10.1,5.3c6.3,4.9,7.6,11.7,3.8,18.7
		c-1.2,2.1-2.6,4.1-4.4,5.7c-1,0.9-1.4,1.8-1.4,3.1c0,9.9,0.1,19.7,0,29.6c0,1.4,0.4,2.2,1.6,2.8
		C295.4,168.2,297.3,170.8,298.3,174.8z M259.7,144.8c0,5.4,0,10.7,0,16.1c0,2.3,0.1,2.3,2.1,2.3c2.2,0,2.3,0,2.4-2.4
		c0-3.4,0-6.8,0-10.2c0-6.9,0-13.8,0-20.7c0-0.8,0.4-1.9-0.4-2.5c-0.9-0.6-2.1-0.4-3.2-0.2c-1.1,0.1-0.9,1.1-0.9,1.8
		C259.7,134.3,259.7,139.6,259.7,144.8z M278,145.4c0-5.4,0-10.7,0-16.1c0-1.5-0.3-2.2-2-2.2c-2.4,0.1-2.5,0-2.5,2.6
		c0,10.3,0,20.6,0,30.9c0,0.4,0,0.9,0,1.3c0,1,0.5,1.3,1.4,1.3c3.2,0,3-0.1,3-2.8C277.9,155.4,278,150.4,278,145.4z M246,145
		c0,5.3,0,10.5,0,15.8c0,0.7-0.3,1.7,0.4,2.1c1,0.6,2.1,0.4,3.2,0.2c1.2-0.3,0.8-1.4,0.8-2.2c0-10.5,0-21,0-31.6
		c0-2.2-0.1-2.2-2.2-2.2c-2.2,0-2.3,0-2.3,2.4C246,134.7,246,139.9,246,145z"/>
	<path class="st5" d="M127.5,320.4c0.2,0.5,0.6,0.6,1.1,0.6c-0.7,0.7-1.5,1.1-2.6,1.4C126.3,321.5,126.8,320.8,127.5,320.4z"/>
</g>
</svg>
